<svg xmlns="http://www.w3.org/2000/svg" width="31.06" height="31.059" viewBox="0 0 31.06 31.059">
  <g id="Group_10885" data-name="Group 10885" transform="translate(-8146 80)">
    <g id="Group_10883" data-name="Group 10883" transform="translate(6851.946 -917.842)">
      <g id="Group_1" data-name="Group 1" transform="translate(1294.054 837.842)">
        <path id="Path_1" data-name="Path 1" d="M1325.113,844.68h-11.339a30.923,30.923,0,0,1,8.076,10.024,30.457,30.457,0,0,1,2.413,6.58,30.8,30.8,0,0,1,.849,7.189v.427h-6.838v-.427a23.7,23.7,0,0,0-5.3-14.965l0,.02c-.011.058-.021.115-.033.173v.007l-.036.18,0,.012c-.009.047-.019.094-.029.14s-.024.112-.037.169-.018.083-.028.124-.019.083-.029.124l-.026.107-.006.024q-.029.121-.061.241t-.066.247c-.021.077-.043.155-.065.232a.342.342,0,0,1-.011.036c-.014.052-.03.1-.046.156-.009.03-.018.06-.027.09,0,0,0,.01,0,.015-.046.149-.093.3-.142.445a.04.04,0,0,1,0,.008c-.021.064-.043.128-.065.191l-.024.068c-.025.073-.051.145-.077.217-.088.241-.181.482-.278.718s-.206.485-.315.723a18.815,18.815,0,0,1-17.082,10.927h-.427v-6.838h.427a11.972,11.972,0,0,0,11.815-10.044l0-.01c.035-.214.064-.435.088-.658,0-.007,0-.014,0-.021a12.125,12.125,0,0,0,0-2.473c-.024-.23-.054-.458-.09-.678q-.032-.2-.071-.4l-.221-.124-.215-.118-.177-.1-.06-.032-.2-.106a23.7,23.7,0,0,0-3.453-1.443q-.857-.281-1.734-.5a23.907,23.907,0,0,0-5.681-.682h-.427v-6.838h31.059Z" transform="translate(-1294.054 -837.842)" fill="#fff"/>
      </g>
      <g id="Group_2" data-name="Group 2" transform="translate(1306.226 847.777)">
        <path id="Path_2" data-name="Path 2" d="M1585.617,1076.033l0,.02c-.011.058-.021.115-.032.173v.007l-.036.179,0,.012c-.009.047-.019.094-.03.14s-.024.112-.037.169-.018.083-.028.124-.019.083-.029.124l-.026.107-.006.024q-.029.12-.061.241t-.066.247c-.021.077-.043.155-.065.232,0,.012-.006.024-.011.036-.015.052-.03.1-.046.156-.009.03-.018.06-.027.09,0,0,0,.01,0,.015-.045.149-.093.3-.142.445l0,.008c-.021.064-.043.128-.065.192l-.023.068c-.025.073-.051.145-.077.217-.088.241-.181.483-.278.718l-.3.739-.011-.016-.435-.648a20.2,20.2,0,0,0-3.6-4.055c-.34-.292-.7-.579-1.063-.852l-.207-.155.039-.246,0-.01c.035-.214.064-.435.088-.658,0-.007,0-.014,0-.021a12.125,12.125,0,0,0,0-2.473c-.024-.23-.054-.458-.09-.678q-.032-.2-.071-.4l.166.1c.089.051.178.1.266.156a23.745,23.745,0,0,1,2.4,1.637q.294.228.58.465.171.142.34.286c.465.4.921.822,1.355,1.258.361.362.714.74,1.049,1.123Q1585.325,1075.673,1585.617,1076.033Z" transform="translate(-1578.864 -1070.302)" fill="#afafaf"/>
      </g>
    </g>
  </g>
</svg>
